<!--?xml version="1.0" standalone="no"?-->
              <svg id="sw-js-blob-svg" viewBox="0 0 100 100" xmlns="http://www.w3.org/2000/svg" version="1.1">
                    <defs> 
                        <linearGradient id="sw-gradient" x1="0" x2="1" y1="1" y2="0">
                            <stop id="stop1" stop-color="rgba(248.995, 80.942, 1.406, 1)" offset="0%"></stop>
                            <stop id="stop2" stop-color="rgba(223.95, 170.518, 82.322, 1)" offset="100%"></stop>
                        </linearGradient>
                    </defs>
                <path fill="url(#sw-gradient)" d="M18.1,-24.4C21.5,-18.7,20.8,-11.1,22,-3.9C23.2,3.3,26.3,10.1,24.5,14.9C22.6,19.8,16,22.7,10.5,21.4C5,20.2,0.8,14.9,-5.3,13.3C-11.4,11.6,-19.3,13.7,-20.6,11.7C-22,9.8,-16.8,3.9,-13.3,0.1C-9.7,-3.7,-7.9,-5.4,-5.9,-11.4C-4,-17.3,-2,-27.4,2.7,-30.6C7.4,-33.7,14.7,-30,18.1,-24.4Z" width="100%" height="100%" transform="translate(50 50)" stroke-width="0" style="transition: all 0.3s ease 0s;"></path>
              </svg>