<!--?xml version="1.0" standalone="no"?-->
              <svg id="sw-js-blob-svg" viewBox="0 0 100 100" xmlns="http://www.w3.org/2000/svg" version="1.1">
                    <defs> 
                        <linearGradient id="sw-gradient" x1="0" x2="1" y1="1" y2="0">
                            <stop id="stop1" stop-color="rgba(248, 117, 55, 1)" offset="0%"></stop>
                            <stop id="stop2" stop-color="rgba(251, 168, 31, 1)" offset="100%"></stop>
                        </linearGradient>
                    </defs>
                <path fill="url(#sw-gradient)" d="M23,-27.3C30.6,-21,38.2,-14.5,39.3,-7.1C40.4,0.3,34.9,8.6,30,17.6C25.2,26.6,21,36.3,13.3,41C5.7,45.7,-5.4,45.5,-13.2,40.7C-21,35.9,-25.5,26.6,-28.2,18.1C-30.8,9.6,-31.7,1.9,-30.5,-5.4C-29.2,-12.8,-25.9,-19.9,-20.5,-26.6C-15.1,-33.3,-7.5,-39.5,0.1,-39.6C7.7,-39.7,15.3,-33.6,23,-27.3Z" width="100%" height="100%" transform="translate(50 50)" stroke-width="0" style="transition: all 0.3s ease 0s;"></path>
              </svg>